<svg fill="none" height="15" viewBox="0 0 15 15" width="15" xmlns="http://www.w3.org/2000/svg"><g fill="#000"><path d="m4.10395 3.39722 2.46662 4.93323-2.64493.88165-1.32818-5.31271z"/><path d="m9.27727 11.5078-1.29663-2.59328 3.15716-1.0524 1.1649 1.83042z"/><path d="m12.1839 6.45935-.6216.20718-.5179-.81396.5763-.14409z"/><path clip-rule="evenodd" d="m0 2.5c0-1.38071 1.11929-2.5 2.5-2.5h10c1.3807 0 2.5 1.11929 2.5 2.5v10c0 1.3807-1.1193 2.5-2.5 2.5h-10c-1.38071 0-2.5-1.1193-2.5-2.5zm4.80445.06215c-.11128-.22256-.36927-.32943-.60533-.25074l-2.35714.78571c-.24786.08262-.39033.34215-.32696.59561l1.57143 6.28572c.03378.13515.12238.25005.24446.31705.12209.067.2666.0801.39872.036l3.29269-1.09754 1.60199 3.20394c.06228.1246.1737.2175.30742.2565.13371.0389.27761.0203.39704-.0513l3.92853-2.3572c.1157-.0694.1984-.1826.2294-.31384.031-.13128.0076-.26952-.0648-.38332l-1.3062-2.05258 1.0425-.3475c.1525-.05082.2712-.17184.3191-.32525.048-.15341.0192-.32051-.0772-.44909l-1.1786-1.57143c-.1207-.16093-.3261-.23386-.5212-.18507l-1.5715.39286c-.1559.03898-.28358.15054-.34313.29982-.05954.14929-.0437.3181.04259.45369l.75624 1.1883-3.05562 1.01852z" fill-rule="evenodd"/></g></svg>